<?xml version="1.0" standalone="no"?>
<!DOCTYPE svg PUBLIC "-//W3C//DTD SVG 20010904//EN"
 "http://www.w3.org/TR/2001/REC-SVG-20010904/DTD/svg10.dtd">
<svg version="1.0" xmlns="http://www.w3.org/2000/svg"
 width="1024.000000pt" height="1024.000000pt" viewBox="0 0 1024.000000 1024.000000"
 preserveAspectRatio="xMidYMid meet">

<g transform="translate(0.000000,1024.000000) scale(0.100000,-0.100000)"
fill="#000000" stroke="none">
<path d="M0 5120 l0 -5120 5120 0 5120 0 0 5120 0 5120 -5120 0 -5120 0 0
-5120z m5446 4200 c1252 -101 2361 -736 3065 -1755 390 -564 638 -1236 715
-1937 25 -220 25 -688 1 -903 -97 -854 -437 -1635 -997 -2285 -77 -89 -198
-220 -204 -220 -2 0 -6 78 -9 173 -29 843 -454 1598 -1137 2022 -205 127 -541
266 -744 309 -81 17 -93 14 -166 -46 -229 -186 -533 -291 -850 -291 -316 -1
-618 104 -855 297 -31 25 -67 49 -79 52 -46 11 -326 -77 -526 -166 -761 -337
-1278 -1043 -1410 -1925 -7 -44 -17 -157 -24 -253 l-11 -172 -115 126 c-662
727 -1033 1588 -1100 2554 -82 1193 369 2406 1205 3236 692 687 1582 1098
2560 1183 145 12 531 13 681 1z"/>
<path d="M4925 8384 c-278 -42 -515 -131 -727 -273 -689 -462 -960 -1370 -646
-2166 207 -525 643 -914 1183 -1054 534 -139 1126 25 1545 426 447 428 638
1062 510 1693 -42 205 -145 449 -269 636 -241 364 -619 620 -1059 715 -77 16
-140 21 -302 24 -113 2 -218 1 -235 -1z m316 -395 c322 -33 574 -152 800 -378
265 -265 401 -601 402 -991 1 -391 -135 -724 -408 -995 -195 -195 -397 -304
-665 -362 -118 -25 -362 -25 -480 1 -260 56 -472 170 -662 354 -117 114 -203
231 -273 377 -99 202 -133 343 -142 575 -9 264 36 480 147 705 217 439 637
705 1141 724 20 0 83 -4 140 -10z"/>
</g>
</svg>
